<svg width="68" height="68" viewBox="0 0 68 68" fill="none" xmlns="http://www.w3.org/2000/svg">
<path d="M33.9409 0.707107L47.0224 13.7886C48.7798 15.5459 48.7798 18.3952 47.0224 20.1525L33.9409 33.234L20.8594 20.1525C19.1021 18.3952 19.1021 15.5459 20.8594 13.7886L33.9409 0.707107Z" fill="#49516F" stroke="#E2E2E2"/>
<path d="M54.0934 20.8598L67.1748 33.9413L54.0934 47.0227C52.336 48.7801 49.4868 48.7801 47.7294 47.0227L34.6479 33.9413L47.7294 20.8598C49.4868 19.1024 52.336 19.1024 54.0934 20.8598Z" fill="#6697E6" stroke="#707070"/>
<path d="M20.1524 20.8598L33.2339 33.9413L20.1524 47.0227C18.3951 48.7801 15.5458 48.7801 13.7885 47.0227L0.707003 33.9413L13.7885 20.8598C15.5458 19.1024 18.3951 19.1024 20.1524 20.8598Z" fill="white" stroke="#707070"/>
<path d="M33.9409 34.6483L47.0224 47.7297C48.7798 49.4871 48.7798 52.3363 47.0224 54.0937L33.9409 67.1752L20.8594 54.0937C19.1021 52.3363 19.1021 49.4871 20.8594 47.7297L33.9409 34.6483Z" fill="#63C224" stroke="white"/>
</svg>
